<svg className="logo-koch--color" xmlns="http://www.w3.org/2000/svg" xmlnsXlink="http://www.w3.org/1999/xlink" viewBox="0 0 125 18.3">
	<path id="Path_37" data-name="Path 37" d="M137.645,52.156,145.3,44.07h-7.151l-7.018,6.478V44.07H124.41V62.353h6.723V58.431l1.413-1.247,4.205,5.169h9.1l-8.2-10.2" transform="translate(-93.615 -44.053)" fill="#231f20"/>
	<path id="Path_38" data-name="Path 38" d="M250.5,0V6.532l-5.817-.008L244.674,0H237.78V18.258l6.935,0V11.618h5.726v6.636l7.114,0V0Z" transform="translate(-138.992)" fill="#231f20"/>
	<path id="Path_39" data-name="Path 39" d="M190.417,49.642V56.96a1.284,1.284,0,0,1-1.209,1.35h-3.881a1.284,1.284,0,0,1-1.205-1.35V49.642a1.284,1.284,0,0,1,1.205-1.35h3.881a1.284,1.284,0,0,1,1.2,1.35m2.8-5.568H181.313a4.334,4.334,0,0,0-4.043,4.571v9.108a4.334,4.334,0,0,0,4.043,4.571h11.913a4.337,4.337,0,0,0,4.047-4.571V48.641a4.34,4.34,0,0,0-4.047-4.571" transform="translate(-124.51 -44.053)" fill="#231f20"/>
	<path id="Path_40" data-name="Path 40" d="M252.48,50.7V49.32a6.142,6.142,0,0,0-1.562-4.28,2.942,2.942,0,0,0-2.078-.96H236.374c-2.007,0-3.644,2.348-3.644,5.24v7.77c0,2.884,1.637,5.232,3.644,5.232H248.84c2.011,0,3.644-2.348,3.644-5.232v-2.1H245.94l-.15,1.749c-.075.744-.578,1.546-1.205,1.546h-3.815a1.247,1.247,0,0,1-1.205-1.317v-7.28a1.247,1.247,0,0,1,1.205-1.313h3.815a1.247,1.247,0,0,1,1.205,1.313V50.7Z" transform="translate(-156.925 -44.059)" fill="#231f20"/>
	<path id="Path_41" data-name="Path 41" d="M339.16,82.227v.416h.765v1.974h.47v-1.99h.777V82.21Zm4.3,0-.607,1.7-.607-1.7h-.665v2.389H342V82.7l.661,1.911h.378l.652-1.911v1.911h.436V82.247Z" transform="translate(-219.13 -66.345)" fill="#231f20"/>
	<path id="Path_42" data-name="Path 42" d="M62.35,44.1H50.3V62.342H62.276s-2.83-9.042-2.842-9.092S62.35,44.1,62.35,44.1Z" transform="translate(-50.3 -44.071)" fill="#231f20" fillRule="evenodd"/>
	<path id="Path_43" data-name="Path 43" d="M31.589.07,26.1,9.2l5.489,9.117h8.469V.07Z" transform="translate(-15.271 -0.041)" fill="#0099d8" fillRule="evenodd"/>
</svg>
